<?xml version="1.0" encoding="UTF-8" standalone="no"?>
<svg
   xmlns:dc="http://purl.org/dc/elements/1.1/"
   xmlns:cc="http://creativecommons.org/ns#"
   xmlns:rdf="http://www.w3.org/1999/02/22-rdf-syntax-ns#"
   xmlns:svg="http://www.w3.org/2000/svg"
   xmlns="http://www.w3.org/2000/svg"
   xmlns:sodipodi="http://sodipodi.sourceforge.net/DTD/sodipodi-0.dtd"
   xmlns:inkscape="http://www.inkscape.org/namespaces/inkscape"
   version="1.1"
   viewBox="0 0 40.07 28.06"
   id="svg6"
   sodipodi:docname="arrow-down.svg"
   inkscape:version="0.92.2 (5c3e80d, 2017-08-06)">
  <metadata
     id="metadata12">
    <rdf:RDF>
      <cc:Work
         rdf:about="">
        <dc:format>image/svg+xml</dc:format>
        <dc:type
           rdf:resource="http://purl.org/dc/dcmitype/StillImage" />
      </cc:Work>
    </rdf:RDF>
  </metadata>
  <defs
     id="defs10" />
  <sodipodi:namedview
     pagecolor="#ffffff"
     bordercolor="#666666"
     borderopacity="1"
     objecttolerance="10"
     gridtolerance="10"
     guidetolerance="10"
     inkscape:pageopacity="0"
     inkscape:pageshadow="2"
     inkscape:window-width="1920"
     inkscape:window-height="1001"
     id="namedview8"
     showgrid="false"
     inkscape:zoom="8.410549"
     inkscape:cx="20.035"
     inkscape:cy="14.03"
     inkscape:window-x="-9"
     inkscape:window-y="-9"
     inkscape:window-maximized="1"
     inkscape:current-layer="svg6" />
  <title
     id="title2">aside</title>
  <path
     d="m27.16 10.626-6.4174 6.417c-0.09169 0.09178-0.19717 0.13775-0.3165 0.13775-0.11932 0-0.225-0.04597-0.31674-0.13775l-6.4169-6.417c-0.09193-0.09193-0.13775-0.19741-0.13775-0.31678 0-0.11932 0.04596-0.22495 0.13775-0.31669l0.68836-0.68831c0.09178-0.09178 0.19741-0.13765 0.31674-0.13765s0.22495 0.04587 0.31674 0.13765l5.4118 5.4117 5.412-5.412c0.09174-0.09178 0.19741-0.13736 0.31654-0.13736 0.11952 0 0.22514 0.04587 0.31688 0.13736l0.68846 0.6886c0.09174 0.09174 0.13732 0.19741 0.13732 0.31669 4.8e-5 0.11942-0.04553 0.22505-0.13727 0.31683z"
     stroke-width=".048231"
     id="path4"
     style="fill:#5f5f5f;fill-opacity:0.58823532" />
</svg>
