<?xml version="1.0" encoding="UTF-8"?><svg xmlns="http://www.w3.org/2000/svg" xmlns:xlink="http://www.w3.org/1999/xlink"><symbol viewBox="0 0 50 50" id="arrow-left" xmlns="http://www.w3.org/2000/svg"><path fill="none" data-name="Rectangle 20440" d="M0 0h50v50H0z"/><path d="m21.552 25.467 5.341 5.341a.66.66 0 0 0 .933 0l.623-.623a.66.66 0 0 0 0-.932L24.217 25l4.233-4.251a.659.659 0 0 0 0-.932l-.623-.623a.66.66 0 0 0-.933 0l-5.342 5.34a.66.66 0 0 0 0 .933Z" data-name="Right arrow"/></symbol><symbol viewBox="0 0 16 14" id="bucket-plan" xmlns="http://www.w3.org/2000/svg"><path data-name="Bucket icon" d="M4.667.75v2.5a.75.75 0 0 1-.75.75H.75A.75.75 0 0 1 0 3.25V.75A.75.75 0 0 1 .75 0h3.167a.75.75 0 0 1 .75.75Zm5.667 7.5v-2.5a.75.75 0 0 0-.75-.75H6.417a.75.75 0 0 0-.75.75v2.5a.75.75 0 0 0 .75.75h3.166a.75.75 0 0 0 .75-.75Zm1-7.5v2.5a.75.75 0 0 0 .75.75h3.166a.75.75 0 0 0 .75-.75V.75a.75.75 0 0 0-.75-.75h-3.167a.75.75 0 0 0-.75.75Zm-1 2.5V.75a.75.75 0 0 0-.75-.75H6.417a.75.75 0 0 0-.75.75v2.5a.75.75 0 0 0 .75.75h3.166a.75.75 0 0 0 .75-.75ZM3.917 5H.75a.75.75 0 0 0-.75.75v2.5A.75.75 0 0 0 .75 9h3.167a.75.75 0 0 0 .75-.75v-2.5a.75.75 0 0 0-.75-.75ZM0 10.75v2.5a.75.75 0 0 0 .75.75h3.167a.75.75 0 0 0 .75-.75v-2.5a.75.75 0 0 0-.75-.75H.75a.75.75 0 0 0-.75.75ZM12.083 9h3.167a.75.75 0 0 0 .75-.75v-2.5a.75.75 0 0 0-.75-.75h-3.167a.75.75 0 0 0-.75.75v2.5a.75.75 0 0 0 .75.75Zm0 5h3.167a.75.75 0 0 0 .75-.75v-2.5a.75.75 0 0 0-.75-.75h-3.167a.75.75 0 0 0-.75.75v2.5a.75.75 0 0 0 .75.75Zm-6.416-3.25v2.5a.75.75 0 0 0 .75.75h3.166a.75.75 0 0 0 .75-.75v-2.5a.75.75 0 0 0-.75-.75H6.417a.75.75 0 0 0-.75.75Z" fill="#313639" opacity=".75"/></symbol><symbol viewBox="0 0 14 16" id="orders-icon" xmlns="http://www.w3.org/2000/svg"><path data-name="Icon awesome-database" d="M14 2.286v1.428C14 4.973 10.865 6 7 6S0 4.973 0 3.714V2.286C0 1.027 3.135 0 7 0s7 1.027 7 2.286ZM14 5.5v3.214C14 9.973 10.865 11 7 11S0 9.973 0 8.714V5.5c1.5 1.036 4.256 1.518 7 1.518s5.5-.482 7-1.518Zm0 5v3.214C14 14.973 10.865 16 7 16s-7-1.027-7-2.286V10.5c1.5 1.036 4.256 1.518 7 1.518s5.5-.482 7-1.518Z" fill="currentColor" opacity=".75"/></symbol><symbol viewBox="0 0 50 50" id="search" xmlns="http://www.w3.org/2000/svg"><path fill="none" data-name="Icon boundaries" d="M0 0h50v50H0z"/><path d="m34.728 32.293-3.894-3.895a.937.937 0 0 0-.664-.273h-.637a8.122 8.122 0 1 0-1.406 1.406v.637a.937.937 0 0 0 .273.664l3.895 3.895a.934.934 0 0 0 1.324 0l1.106-1.106a.942.942 0 0 0 .003-1.328Zm-11.6-4.168a5 5 0 1 1 5-5 5 5 0 0 1-5.002 4.999Z" data-name="Search"/></symbol><symbol viewBox="0 0 40 40" id="user" xmlns="http://www.w3.org/2000/svg"><path fill="none" d="M0 0h40v40H0z"/><path d="M20 30a10 10 0 1 1 7.071-2.928A10 10 0 0 1 20 30Zm-4.167-7.083a1.517 1.517 0 0 0-1.667 1.667v1.364a8.322 8.322 0 0 0 11.667 0v-1.364a1.517 1.517 0 0 0-1.667-1.667ZM20 13.82a4.167 4.167 0 1 0 4.167 4.167A4.167 4.167 0 0 0 20 13.82Z"/></symbol></svg>