<svg xmlns="http://www.w3.org/2000/svg"  viewBox="0 0 16 14">
  <path id="Bucket_icon" data-name="Bucket icon" d="M4.667,3V5.5a.75.75,0,0,1-.75.75H.75A.75.75,0,0,1,0,5.5V3a.75.75,0,0,1,.75-.75H3.917a.75.75,0,0,1,.75.75Zm5.667,7.5V8a.75.75,0,0,0-.75-.75H6.417a.75.75,0,0,0-.75.75v2.5a.75.75,0,0,0,.75.75H9.583A.75.75,0,0,0,10.333,10.5Zm1-7.5V5.5a.75.75,0,0,0,.75.75H15.25A.75.75,0,0,0,16,5.5V3a.75.75,0,0,0-.75-.75H12.083A.75.75,0,0,0,11.333,3Zm-1,2.5V3a.75.75,0,0,0-.75-.75H6.417a.75.75,0,0,0-.75.75V5.5a.75.75,0,0,0,.75.75H9.583A.75.75,0,0,0,10.333,5.5ZM3.917,7.25H.75A.75.75,0,0,0,0,8v2.5a.75.75,0,0,0,.75.75H3.917a.75.75,0,0,0,.75-.75V8a.75.75,0,0,0-.75-.75ZM0,13v2.5a.75.75,0,0,0,.75.75H3.917a.75.75,0,0,0,.75-.75V13a.75.75,0,0,0-.75-.75H.75A.75.75,0,0,0,0,13Zm12.083-1.75H15.25A.75.75,0,0,0,16,10.5V8a.75.75,0,0,0-.75-.75H12.083a.75.75,0,0,0-.75.75v2.5A.75.75,0,0,0,12.083,11.25Zm0,5H15.25A.75.75,0,0,0,16,15.5V13a.75.75,0,0,0-.75-.75H12.083a.75.75,0,0,0-.75.75v2.5A.75.75,0,0,0,12.083,16.25ZM5.667,13v2.5a.75.75,0,0,0,.75.75H9.583a.75.75,0,0,0,.75-.75V13a.75.75,0,0,0-.75-.75H6.417A.75.75,0,0,0,5.667,13Z" transform="translate(0 -2.25)" fill="#313639" opacity="0.75"/>
</svg>
