<svg xmlns="http://www.w3.org/2000/svg" width="41.516" height="50" viewBox="0 0 41.516 50">
  <g id="g14_4_" transform="translate(0)">
    <g id="g4_4_" transform="translate(20.703)">
      <path id="path2_4_" d="M69.38-853.9V-838.1a2.508,2.508,0,0,1-2.5,2.511H58.643v-7.065a5.132,5.132,0,0,0-5.123-5.123H48.568v-6.137a2.506,2.506,0,0,1,2.5-2.5H66.877A2.518,2.518,0,0,1,69.38-853.9Z" transform="translate(-48.568 856.414)" fill="#3d70b2"/>
    </g>
    <g id="g8_4_" transform="translate(0 11.541)">
      <path id="path6_4_" d="M39.716-832.582v16.36H33.7a3.681,3.681,0,0,0-3.673,3.681v4.492H15.184a3.348,3.348,0,0,1-3.353-3.353v-21.179a3.353,3.353,0,0,1,3.353-3.353H36.363A3.358,3.358,0,0,1,39.716-832.582Z" transform="translate(-11.831 835.935)" fill="#3d70b2"/>
    </g>
    <g id="g12_4_" transform="translate(21.085 34.147)">
      <path id="path10_4_" d="M65.083-793.911v12.032a1.907,1.907,0,0,1-1.9,1.911H51.149a1.907,1.907,0,0,1-1.9-1.911v-12.032a1.907,1.907,0,0,1,1.9-1.91H63.181A1.907,1.907,0,0,1,65.083-793.911Z" transform="translate(-49.246 795.822)" fill="#3d70b2"/>
    </g>
  </g>
</svg>
